<svg width="21" height="15" viewBox="0 0 21 15" fill="none" xmlns="http://www.w3.org/2000/svg">
<path d="M10.6252 10.6247C9.72238 10.6247 8.95502 10.3087 8.32308 9.67676C7.69113 9.04481 7.37516 8.27745 7.37516 7.37467C7.37516 6.4719 7.69113 5.70454 8.32308 5.07259C8.95502 4.44065 9.72238 4.12467 10.6252 4.12467C11.5279 4.12467 12.2953 4.44065 12.9272 5.07259C13.5592 5.70454 13.8752 6.4719 13.8752 7.37467C13.8752 8.27745 13.5592 9.04481 12.9272 9.67676C12.2953 10.3087 11.5279 10.6247 10.6252 10.6247ZM1.9585 14.4163C1.51162 14.4163 1.12907 14.2572 0.81084 13.939C0.492611 13.6208 0.333496 13.2382 0.333496 12.7913V1.95801C0.333496 1.51113 0.492611 1.12858 0.81084 0.810352C1.12907 0.492122 1.51162 0.333008 1.9585 0.333008H19.2918C19.7387 0.333008 20.1213 0.492122 20.4395 0.810352C20.7577 1.12858 20.9168 1.51113 20.9168 1.95801V12.7913C20.9168 13.2382 20.7577 13.6208 20.4395 13.939C20.1213 14.2572 19.7387 14.4163 19.2918 14.4163H1.9585ZM4.66683 12.7913H16.5835C16.5835 12.033 16.8453 11.392 17.3689 10.8684C17.8925 10.3448 18.5335 10.083 19.2918 10.083V4.66634C18.5335 4.66634 17.8925 4.40454 17.3689 3.88092C16.8453 3.35731 16.5835 2.71634 16.5835 1.95801H4.66683C4.66683 2.71634 4.40502 3.35731 3.88141 3.88092C3.3578 4.40454 2.71683 4.66634 1.9585 4.66634V10.083C2.71683 10.083 3.3578 10.3448 3.88141 10.8684C4.40502 11.392 4.66683 12.033 4.66683 12.7913Z" fill="#434343"/>
</svg>
