<svg width="21" height="28" viewBox="0 0 21 28" fill="none" xmlns="http://www.w3.org/2000/svg">
<g opacity="0.5" clip-path="url(#clip0_3429_1066)">
<path d="M18.907 21.7245C20.0655 21.5635 20.3735 21.161 20.244 20.0375C20.09 18.7075 19.936 17.3775 19.782 16.0475C19.551 14.0805 19.3585 12.11 19.075 10.15C18.7635 7.99053 16.688 6.61853 14.5705 7.09803C12.943 7.46903 11.8475 8.81653 11.648 10.654C11.4065 12.8695 11.137 15.078 10.878 17.2935C10.759 18.319 10.633 19.348 10.5245 20.3735C10.4475 21.091 10.7625 21.511 11.4625 21.665C11.599 21.6965 11.7425 21.707 11.9105 21.7315C11.9105 23.2575 11.907 24.773 11.914 26.285C11.914 26.544 11.935 26.8135 12.0085 27.062C12.2465 27.867 13.1145 28.224 13.867 27.8495C14.4935 27.538 14.7035 26.9885 14.707 26.334C14.714 24.948 14.707 23.5655 14.707 22.1795C14.707 22.0255 14.707 21.8715 14.707 21.721H16.107C16.107 21.882 16.107 22.0255 16.107 22.1655C16.107 23.534 16.1035 24.906 16.1105 26.2745C16.1105 26.5195 16.135 26.7715 16.198 27.0095C16.443 27.916 17.4265 28.28 18.214 27.7655C18.7495 27.4155 18.9035 26.8905 18.9035 26.2955C18.9035 24.78 18.9035 23.268 18.9035 21.7245H18.907ZM4.90699 19.6175C4.90699 21.8505 4.90699 24.038 4.91049 26.222C4.91049 26.481 4.93149 26.7505 4.99799 26.999C5.23949 27.93 6.24749 28.287 7.04199 27.748C7.55649 27.398 7.70349 26.8835 7.70699 26.306C7.71049 24.2935 7.70699 22.281 7.71749 20.272C7.71749 20.104 7.76999 19.873 7.88549 19.782C8.24949 19.488 8.40349 19.11 8.40699 18.676C8.41399 16.1385 8.42799 13.6045 8.39649 11.067C8.38599 10.08 8.14799 9.13503 7.46549 8.35453C6.36999 7.10503 4.95249 6.86703 3.40549 7.06653C1.45949 7.31503 0.0454964 8.83403 0.0209964 10.7905C-0.0140036 13.4435 0.00699642 16.0965 0.0139964 18.7495C0.0139964 19.124 0.139996 19.446 0.447996 19.7085C0.584496 19.824 0.699996 20.055 0.699996 20.237C0.717496 22.2495 0.706996 24.262 0.713996 26.271C0.713996 26.516 0.731495 26.768 0.797995 27.006C1.0465 27.93 2.05449 28.287 2.84899 27.748C3.36349 27.398 3.51049 26.8835 3.51049 26.306C3.51399 24.2375 3.51049 22.1655 3.51049 20.097C3.51049 19.943 3.51049 19.789 3.51049 19.621H4.91049L4.90699 19.6175ZM12.6105 2.77553C12.6105 4.32953 13.8565 5.59653 15.3965 5.60003C16.9365 5.60003 18.2105 4.33653 18.2105 2.80003C18.2105 1.28103 16.9505 0.00702919 15.442 2.91878e-05C13.888 -0.00697081 12.6105 1.24603 12.6105 2.77553ZM7.01049 2.78603C7.01049 1.27403 5.73999 2.91878e-05 4.23149 2.91878e-05C2.67749 2.91878e-05 1.41049 1.24953 1.41049 2.78953C1.41049 4.34003 2.66699 5.60353 4.20699 5.60003C5.74349 5.60003 7.01049 4.32953 7.01049 2.78953V2.78603Z" fill="white"/>
<path d="M18.907 21.7245C18.907 23.268 18.907 24.78 18.907 26.2955C18.907 26.8905 18.7495 27.419 18.2175 27.7655C17.43 28.2765 16.4465 27.916 16.2015 27.0095C16.1385 26.775 16.114 26.5195 16.114 26.2745C16.107 24.906 16.1105 23.534 16.1105 22.1655C16.1105 22.0255 16.1105 21.882 16.1105 21.721H14.7105C14.7105 21.875 14.7105 22.029 14.7105 22.1795C14.7105 23.5655 14.714 24.948 14.7105 26.334C14.7105 26.985 14.497 27.5345 13.8705 27.8495C13.118 28.224 12.25 27.867 12.012 27.062C11.9385 26.817 11.9175 26.5475 11.9175 26.285C11.9105 24.773 11.914 23.2575 11.914 21.7315C11.746 21.707 11.6025 21.6965 11.466 21.665C10.766 21.511 10.4545 21.091 10.528 20.3735C10.6365 19.3445 10.7625 18.319 10.8815 17.2935C11.1405 15.0815 11.41 12.8695 11.6515 10.654C11.851 8.82003 12.9465 7.46903 14.574 7.09803C16.688 6.61853 18.7635 7.99053 19.0785 10.15C19.362 12.11 19.5545 14.0805 19.7855 16.0475C19.943 17.3775 20.0935 18.7075 20.2475 20.0375C20.3805 21.161 20.0725 21.5635 18.9105 21.7245H18.907Z" fill="black"/>
<path d="M4.90699 19.6177H3.50699C3.50699 19.7857 3.50699 19.9397 3.50699 20.0937C3.50699 22.1622 3.50699 24.2342 3.50699 26.3027C3.50699 26.8802 3.35999 27.3947 2.84549 27.7447C2.05099 28.2837 1.04299 27.9302 0.794494 27.0027C0.731494 26.7682 0.713995 26.5127 0.710495 26.2677C0.703495 24.2552 0.710495 22.2427 0.696495 20.2337C0.696495 20.0552 0.580995 19.8242 0.444495 19.7052C0.136495 19.4427 0.0104955 19.1207 0.0104955 18.7462C0.00699552 16.0932 -0.0175044 13.4402 0.0174955 10.7872C0.0454955 8.83068 1.45599 7.30818 3.39849 7.05968C4.94549 6.86018 6.36299 7.09818 7.45849 8.34768C8.14098 9.12818 8.37898 10.0732 8.38948 11.0602C8.42098 13.5977 8.40698 16.1317 8.39998 18.6692C8.39998 19.1032 8.24248 19.4812 7.87848 19.7752C7.76298 19.8662 7.71398 20.0972 7.71048 20.2652C7.69999 22.2777 7.70698 24.2902 7.69999 26.2992C7.69999 26.8767 7.54949 27.3912 7.03499 27.7412C6.24049 28.2802 5.23249 27.9232 4.99099 26.9922C4.92449 26.7437 4.90699 26.4742 4.90349 26.2152C4.89649 24.0312 4.89999 21.8437 4.89999 19.6107L4.90699 19.6177Z" fill="black"/>
<path d="M12.6105 2.77553C12.6105 1.24603 13.888 -0.00697081 15.442 2.91878e-05C16.9505 0.00702919 18.2105 1.28103 18.2105 2.80003C18.2105 4.33653 16.9365 5.60003 15.3965 5.60003C13.8565 5.60003 12.607 4.33303 12.6105 2.77553Z" fill="black"/>
<path d="M7.00698 2.7895C7.00698 4.3295 5.73998 5.6 4.20348 5.6C2.66348 5.6 1.40698 4.3365 1.40698 2.7895C1.41048 1.2495 2.67748 0 4.23148 0C5.73998 0 7.01048 1.274 7.01048 2.7895H7.00698Z" fill="black"/>
</g>
<defs>
<clipPath id="clip0_3429_1066">
<rect width="20.272" height="28" fill="white"/>
</clipPath>
</defs>
</svg>
