<svg width="42" height="56" viewBox="0 0 42 56" fill="none" xmlns="http://www.w3.org/2000/svg">
<g clip-path="url(#clip0_1822_2136)">
<path d="M38.678 43.4491C40.995 43.1271 41.611 42.3221 41.352 40.0751C41.044 37.4151 40.736 34.7551 40.428 32.0951C39.966 28.1611 39.581 24.2201 39.014 20.3001C38.391 15.9811 34.24 13.2371 30.005 14.1961C26.75 14.9381 24.559 17.6331 24.16 21.3081C23.677 25.7391 23.138 30.1561 22.62 34.5871C22.382 36.6381 22.13 38.6961 21.913 40.7471C21.759 42.1821 22.389 43.0221 23.789 43.3301C24.062 43.3931 24.349 43.4141 24.685 43.4631C24.685 46.5151 24.678 49.5461 24.692 52.5701C24.692 53.0881 24.734 53.6271 24.881 54.1241C25.357 55.7341 27.093 56.4481 28.598 55.6991C29.851 55.0761 30.271 53.9771 30.278 52.6681C30.292 49.8961 30.278 47.1311 30.278 44.3591C30.278 44.0511 30.278 43.7431 30.278 43.4421H33.078C33.078 43.7641 33.078 44.0511 33.078 44.3311C33.078 47.0681 33.071 49.8121 33.085 52.5491C33.085 53.0391 33.134 53.5431 33.26 54.0191C33.75 55.8321 35.717 56.5601 37.292 55.5311C38.363 54.8311 38.671 53.7811 38.671 52.5911C38.671 49.5601 38.671 46.5361 38.671 43.4491H38.678ZM10.678 39.2351C10.678 43.7011 10.678 48.0761 10.685 52.4441C10.685 52.9621 10.727 53.5011 10.86 53.9981C11.343 55.8601 13.359 56.5741 14.948 55.4961C15.977 54.7961 16.271 53.7671 16.278 52.6121C16.285 48.5871 16.278 44.5621 16.299 40.5441C16.299 40.2081 16.404 39.7461 16.635 39.5641C17.363 38.9761 17.671 38.2201 17.678 37.3521C17.692 32.2771 17.72 27.2091 17.657 22.1341C17.636 20.1601 17.16 18.2701 15.795 16.7091C13.604 14.2101 10.769 13.7341 7.675 14.1331C3.783 14.6301 0.955006 17.6681 0.906006 21.5811C0.836007 26.8871 0.878007 32.1931 0.892006 37.4991C0.892006 38.2481 1.14401 38.8921 1.76001 39.4171C2.033 39.6481 2.264 40.1101 2.264 40.4741C2.299 44.4991 2.278 48.5241 2.292 52.5421C2.292 53.0321 2.327 53.5361 2.46 54.0121C2.957 55.8601 4.973 56.5741 6.562 55.4961C7.591 54.7961 7.885 53.7671 7.885 52.6121C7.892 48.4751 7.885 44.3311 7.885 40.1941C7.885 39.8861 7.885 39.5781 7.885 39.2421H10.685L10.678 39.2351ZM26.085 5.55106C26.085 8.65906 28.577 11.1931 31.657 11.2001C34.737 11.2001 37.285 8.67306 37.285 5.60006C37.285 2.56206 34.765 0.0140584 31.748 5.83756e-05C28.64 -0.0139416 26.085 2.49206 26.085 5.55106ZM14.885 5.57206C14.885 2.54806 12.344 5.83756e-05 9.327 5.83756e-05C6.219 5.83756e-05 3.685 2.49906 3.685 5.57906C3.685 8.68006 6.198 11.2071 9.278 11.2001C12.351 11.2001 14.885 8.65906 14.885 5.57906V5.57206Z" fill="white"/>
<path d="M38.6779 43.4491C38.6779 46.5361 38.6779 49.5601 38.6779 52.591C38.6779 53.781 38.3629 54.8381 37.2989 55.5311C35.7239 56.5531 33.757 55.8321 33.267 54.0191C33.141 53.55 33.092 53.0391 33.092 52.5491C33.078 49.812 33.085 47.0681 33.085 44.3311C33.085 44.0511 33.085 43.7641 33.085 43.4421H30.285C30.285 43.7501 30.285 44.0581 30.285 44.3591C30.285 47.1311 30.292 49.896 30.285 52.668C30.285 53.9701 29.858 55.069 28.605 55.6991C27.1 56.4481 25.364 55.7341 24.888 54.1241C24.741 53.6341 24.699 53.0951 24.699 52.57C24.685 49.5461 24.692 46.5151 24.692 43.4631C24.356 43.4141 24.069 43.3931 23.796 43.3301C22.396 43.0221 21.773 42.1821 21.92 40.7471C22.137 38.6891 22.389 36.6381 22.627 34.5871C23.145 30.1631 23.684 25.7391 24.167 21.3081C24.566 17.6401 26.757 14.9381 30.012 14.1961C34.24 13.2371 38.3909 15.9811 39.0209 20.3001C39.5879 24.2201 39.9729 28.1611 40.4349 32.0951C40.7499 34.7551 41.0509 37.4151 41.3589 40.0751C41.6249 42.3221 41.0089 43.1271 38.6849 43.4491H38.6779Z" fill="#316BFF"/>
<path d="M10.678 39.235H7.878C7.878 39.571 7.878 39.879 7.878 40.187C7.878 44.324 7.878 48.468 7.878 52.605C7.878 53.76 7.584 54.789 6.555 55.489C4.966 56.567 2.95 55.86 2.453 54.005C2.327 53.536 2.292 53.025 2.285 52.535C2.271 48.51 2.285 44.485 2.257 40.467C2.257 40.11 2.026 39.648 1.753 39.41C1.137 38.885 0.885005 38.241 0.885005 37.492C0.878005 32.186 0.829005 26.88 0.899005 21.574C0.955005 17.661 3.776 14.616 7.661 14.119C10.755 13.72 13.59 14.196 15.781 16.695C17.146 18.256 17.622 20.146 17.643 22.12C17.706 27.195 17.678 32.263 17.664 37.338C17.664 38.206 17.349 38.962 16.621 39.55C16.39 39.732 16.292 40.194 16.285 40.53C16.264 44.555 16.278 48.58 16.264 52.598C16.264 53.753 15.963 54.782 14.934 55.482C13.345 56.56 11.329 55.846 10.846 53.984C10.713 53.487 10.678 52.948 10.671 52.43C10.657 48.062 10.664 43.687 10.664 39.221L10.678 39.235Z" fill="#316BFF"/>
<path d="M26.084 5.55106C26.084 2.49206 28.639 -0.0139416 31.747 5.83756e-05C34.764 0.0140584 37.284 2.56206 37.284 5.60006C37.284 8.67306 34.736 11.2001 31.656 11.2001C28.576 11.2001 26.077 8.66606 26.084 5.55106Z" fill="#316BFF"/>
<path d="M14.8782 5.579C14.8782 8.659 12.3442 11.2 9.27122 11.2C6.19122 11.2 3.67822 8.673 3.67822 5.579C3.68522 2.499 6.21922 0 9.32722 0C12.3442 0 14.8852 2.548 14.8852 5.579H14.8782Z" fill="#316BFF"/>
</g>
<defs>
<clipPath id="clip0_1822_2136">
<rect width="40.5439" height="56" fill="white" transform="translate(0.864258)"/>
</clipPath>
</defs>
</svg>
