<svg width="21" height="28" viewBox="0 0 21 28" fill="none" xmlns="http://www.w3.org/2000/svg">
<g clip-path="url(#clip0_3768_1052)">
<path d="M18.9071 21.7245C20.0656 21.5635 20.3736 21.161 20.2441 20.0375C20.0901 18.7075 19.9361 17.3775 19.7821 16.0475C19.5511 14.0805 19.3586 12.11 19.0751 10.15C18.7636 7.99053 16.6881 6.61853 14.5706 7.09803C12.9431 7.46903 11.8476 8.81653 11.6481 10.654C11.4066 12.8695 11.1371 15.078 10.8781 17.2935C10.7591 18.319 10.6331 19.348 10.5246 20.3735C10.4476 21.091 10.7626 21.511 11.4626 21.665C11.5991 21.6965 11.7426 21.707 11.9106 21.7315C11.9106 23.2575 11.9071 24.773 11.9141 26.285C11.9141 26.544 11.9351 26.8135 12.0086 27.062C12.2466 27.867 13.1146 28.224 13.8671 27.8495C14.4936 27.538 14.7036 26.9885 14.7071 26.334C14.7141 24.948 14.7071 23.5655 14.7071 22.1795C14.7071 22.0255 14.7071 21.8715 14.7071 21.721H16.1071C16.1071 21.882 16.1071 22.0255 16.1071 22.1655C16.1071 23.534 16.1036 24.906 16.1106 26.2745C16.1106 26.5195 16.1351 26.7715 16.1981 27.0095C16.4431 27.916 17.4266 28.28 18.2141 27.7655C18.7496 27.4155 18.9036 26.8905 18.9036 26.2955C18.9036 24.78 18.9036 23.268 18.9036 21.7245H18.9071ZM4.90711 19.6175C4.90711 21.8505 4.90711 24.038 4.91061 26.222C4.91061 26.481 4.93161 26.7505 4.99811 26.999C5.23961 27.93 6.24761 28.287 7.04211 27.748C7.55661 27.398 7.70361 26.8835 7.70711 26.306C7.71061 24.2935 7.70711 22.281 7.71761 20.272C7.71761 20.104 7.77011 19.873 7.88561 19.782C8.24961 19.488 8.40361 19.11 8.40711 18.676C8.41411 16.1385 8.42811 13.6045 8.39661 11.067C8.38611 10.08 8.14811 9.13503 7.46561 8.35453C6.37011 7.10503 4.95261 6.86703 3.40561 7.06653C1.45962 7.31503 0.0456184 8.83403 0.0211185 10.7905C-0.0138815 13.4435 0.00711849 16.0965 0.0141185 18.7495C0.0141185 19.124 0.140118 19.446 0.448118 19.7085C0.584618 19.824 0.700118 20.055 0.700118 20.237C0.717618 22.2495 0.707118 24.262 0.714118 26.271C0.714118 26.516 0.731618 26.768 0.798117 27.006C1.04662 27.93 2.05462 28.287 2.84911 27.748C3.36361 27.398 3.51061 26.8835 3.51061 26.306C3.51411 24.2375 3.51061 22.1655 3.51061 20.097C3.51061 19.943 3.51061 19.789 3.51061 19.621H4.91061L4.90711 19.6175ZM12.6106 2.77553C12.6106 4.32953 13.8566 5.59653 15.3966 5.60003C16.9366 5.60003 18.2106 4.33653 18.2106 2.80003C18.2106 1.28103 16.9506 0.00702919 15.4421 2.91878e-05C13.8881 -0.00697081 12.6106 1.24603 12.6106 2.77553ZM7.01061 2.78603C7.01061 1.27403 5.74011 2.91878e-05 4.23161 2.91878e-05C2.67761 2.91878e-05 1.41062 1.24953 1.41062 2.78953C1.41062 4.34003 2.66712 5.60353 4.20711 5.60003C5.74361 5.60003 7.01061 4.32953 7.01061 2.78953V2.78603Z" fill="white"/>
<path d="M18.9071 21.7245C18.9071 23.268 18.9071 24.78 18.9071 26.2955C18.9071 26.8905 18.7496 27.419 18.2176 27.7655C17.4301 28.2765 16.4466 27.916 16.2016 27.0095C16.1386 26.775 16.1141 26.5195 16.1141 26.2745C16.1071 24.906 16.1106 23.534 16.1106 22.1655C16.1106 22.0255 16.1106 21.882 16.1106 21.721H14.7106C14.7106 21.875 14.7106 22.029 14.7106 22.1795C14.7106 23.5655 14.7141 24.948 14.7106 26.334C14.7106 26.985 14.4971 27.5345 13.8706 27.8495C13.1181 28.224 12.2501 27.867 12.0121 27.062C11.9386 26.817 11.9176 26.5475 11.9176 26.285C11.9106 24.773 11.9141 23.2575 11.9141 21.7315C11.7461 21.707 11.6026 21.6965 11.4661 21.665C10.7661 21.511 10.4546 21.091 10.5281 20.3735C10.6366 19.3445 10.7626 18.319 10.8816 17.2935C11.1406 15.0815 11.4101 12.8695 11.6516 10.654C11.8511 8.82003 12.9466 7.46903 14.5741 7.09803C16.6881 6.61853 18.7636 7.99053 19.0786 10.15C19.3621 12.11 19.5546 14.0805 19.7856 16.0475C19.9431 17.3775 20.0936 18.7075 20.2476 20.0375C20.3806 21.161 20.0726 21.5635 18.9106 21.7245H18.9071Z" fill="#808080"/>
<path d="M4.90711 19.6174H3.50711C3.50711 19.7854 3.50711 19.9394 3.50711 20.0934C3.50711 22.1619 3.50711 24.2339 3.50711 26.3024C3.50711 26.8799 3.36011 27.3944 2.84561 27.7444C2.05111 28.2834 1.04312 27.9299 0.794616 27.0024C0.731617 26.7679 0.714117 26.5124 0.710617 26.2674C0.703617 24.2549 0.710617 22.2424 0.696617 20.2334C0.696617 20.0549 0.581117 19.8239 0.444617 19.7049C0.136617 19.4424 0.0106176 19.1204 0.0106176 18.7459C0.00711759 16.0929 -0.0173824 13.4399 0.0176176 10.7869C0.0456175 8.83044 1.45612 7.30794 3.39861 7.05944C4.94561 6.85994 6.36311 7.09794 7.45861 8.34744C8.14111 9.12794 8.37911 10.0729 8.38961 11.0599C8.42111 13.5974 8.40711 16.1314 8.40011 18.6689C8.40011 19.1029 8.24261 19.4809 7.87861 19.7749C7.76311 19.8659 7.71411 20.0969 7.71061 20.2649C7.70011 22.2774 7.70711 24.2899 7.70011 26.2989C7.70011 26.8764 7.54961 27.3909 7.03511 27.7409C6.24061 28.2799 5.23261 27.9229 4.99111 26.9919C4.92461 26.7434 4.90711 26.4739 4.90361 26.2149C4.89661 24.0309 4.90011 21.8434 4.90011 19.6104L4.90711 19.6174Z" fill="#808080"/>
<path d="M12.6106 2.77553C12.6106 1.24603 13.8881 -0.00697081 15.4421 2.91878e-05C16.9506 0.00702919 18.2106 1.28103 18.2106 2.80003C18.2106 4.33653 16.9366 5.60003 15.3966 5.60003C13.8566 5.60003 12.6071 4.33303 12.6106 2.77553Z" fill="#808080"/>
<path d="M7.00698 2.7895C7.00698 4.3295 5.73998 5.6 4.20348 5.6C2.66348 5.6 1.40698 4.3365 1.40698 2.7895C1.41048 1.2495 2.67748 0 4.23148 0C5.73998 0 7.01048 1.274 7.01048 2.7895H7.00698Z" fill="#808080"/>
</g>
<defs>
<clipPath id="clip0_3768_1052">
<rect width="20.272" height="28" fill="white"/>
</clipPath>
</defs>
</svg>
