<svg width="19" height="25" viewBox="0 0 19 25" fill="none" xmlns="http://www.w3.org/2000/svg">
<path d="M6.28709 24.4375C4.63736 24.4375 3.21875 23.8438 2.03125 22.6562C0.84375 21.4688 0.25 20.0521 0.25 18.4062C0.25 16.7604 0.84375 15.3438 2.03125 14.1562C3.21875 12.9688 4.63542 12.375 6.28125 12.375V14.25C5.15625 14.25 4.18229 14.6615 3.35938 15.4844C2.53646 16.3073 2.125 17.2812 2.125 18.4062C2.125 19.5312 2.53646 20.5052 3.35938 21.3281C4.18229 22.151 5.15625 22.5625 6.28125 22.5625C7.40625 22.5625 8.36979 22.1719 9.17188 21.3906C9.97396 20.6094 10.375 19.5 10.375 18.0625H12.25C12.25 20 11.6686 21.5469 10.5058 22.7031C9.34309 23.8594 7.93684 24.4375 6.28709 24.4375ZM16.7188 23.5V17.125H9.9375C8.91667 17.125 8.15104 16.7292 7.64062 15.9375C7.13021 15.1458 7.08333 14.3021 7.5 13.4062L10.1875 7.5H7.25L6.40625 9.78125L4.53125 9.15625L5.40625 6.8125C5.51042 6.4375 5.70312 6.14583 5.98438 5.9375C6.26562 5.72917 6.63685 5.625 7.09806 5.625H13.0938C13.9271 5.625 14.5781 5.95833 15.0469 6.625C15.5156 7.29167 15.5833 7.97917 15.25 8.6875L12.4375 14.6562H16.25C16.8945 14.6562 17.4463 14.8872 17.9053 15.349C18.3643 15.8109 18.5938 16.3661 18.5938 17.0146V23.5H16.7188ZM16.2525 4.625C15.6258 4.625 15.0885 4.40188 14.6406 3.95563C14.1927 3.50935 13.9688 2.9729 13.9688 2.34625C13.9688 1.71958 14.1919 1.18229 14.6381 0.734375C15.0844 0.286458 15.6209 0.0625 16.2475 0.0625C16.8742 0.0625 17.4115 0.285624 17.8594 0.731874C18.3073 1.17815 18.5312 1.7146 18.5312 2.34125C18.5312 2.96792 18.3081 3.50521 17.8619 3.95312C17.4156 4.40104 16.8791 4.625 16.2525 4.625Z" fill="#434343"/>
</svg>
