<svg width="16" height="22" viewBox="0 0 16 22" fill="none" xmlns="http://www.w3.org/2000/svg">
<path d="M0.125 21.3847V0.615479H8.43269C10.3173 0.615479 11.9038 1.25971 13.1923 2.54817C14.4808 3.83663 15.125 5.42317 15.125 7.30779C15.125 9.1924 14.4808 10.7789 13.1923 12.0674C11.9038 13.3559 10.3173 14.0001 8.43269 14.0001H3.58654V21.3847H0.125ZM3.58654 10.5386H8.43269C9.35577 10.5386 10.125 10.2309 10.7404 9.61548C11.3558 9.00009 11.6635 8.23086 11.6635 7.30779C11.6635 6.38471 11.3558 5.61548 10.7404 5.00009C10.125 4.38471 9.35577 4.07702 8.43269 4.07702H3.58654V10.5386Z" fill="#434343"/>
</svg>
