<svg width="20" height="20" viewBox="0 0 20 20" fill="none" xmlns="http://www.w3.org/2000/svg">
<path d="M9.32524 15H10.8252V9H9.32524V15ZM9.99979 7.15C10.2334 7.15 10.4294 7.07333 10.5877 6.92C10.7461 6.76667 10.8252 6.57667 10.8252 6.35C10.8252 6.10917 10.7462 5.90729 10.5882 5.74438C10.4301 5.58146 10.2343 5.5 10.0007 5.5C9.76706 5.5 9.57108 5.58146 9.41274 5.74438C9.25441 5.90729 9.17524 6.10917 9.17524 6.35C9.17524 6.57667 9.25426 6.76667 9.41229 6.92C9.57034 7.07333 9.76618 7.15 9.99979 7.15ZM10.0069 20C8.62799 20 7.33216 19.7375 6.11939 19.2125C4.90663 18.6875 3.84608 17.9708 2.93774 17.0625C2.02941 16.1542 1.31274 15.093 0.787744 13.879C0.262744 12.665 0.000244141 11.3678 0.000244141 9.9875C0.000244141 8.60718 0.262744 7.31003 0.787744 6.09602C1.31274 4.88201 2.02941 3.825 2.93774 2.925C3.84608 2.025 4.90725 1.3125 6.12127 0.7875C7.33527 0.2625 8.63243 0 10.0127 0C11.3931 0 12.6902 0.2625 13.9042 0.7875C15.1182 1.3125 16.1752 2.025 17.0752 2.925C17.9752 3.825 18.6877 4.88333 19.2127 6.1C19.7377 7.31667 20.0002 8.61445 20.0002 9.99335C20.0002 11.3723 19.7377 12.6681 19.2127 13.8809C18.6877 15.0936 17.9752 16.1526 17.0752 17.0579C16.1752 17.9632 15.1169 18.6798 13.9002 19.2079C12.6836 19.736 11.3858 20 10.0069 20ZM10.0127 18.5C12.3711 18.5 14.3752 17.6708 16.0252 16.0125C17.6752 14.3542 18.5002 12.3458 18.5002 9.9875C18.5002 7.62917 17.6768 5.625 16.0299 3.975C14.3831 2.325 12.3732 1.5 10.0002 1.5C7.65024 1.5 5.64608 2.32343 3.98774 3.9703C2.32941 5.61718 1.50024 7.62708 1.50024 10C1.50024 12.35 2.32941 14.3542 3.98774 16.0125C5.64608 17.6708 7.65441 18.5 10.0127 18.5Z" fill="#434343"/>
</svg>
