<svg width="25" height="34" viewBox="0 0 25 34" fill="none" xmlns="http://www.w3.org/2000/svg">
<g clip-path="url(#clip0_3546_2527)">
<path d="M23.1863 7.7821L23.1865 7.78226C24.3256 8.44845 24.7391 9.51094 24.7426 10.8237C24.7505 14.2887 24.749 17.7554 24.7475 21.2217C24.7469 22.6081 24.7463 23.9945 24.7463 25.3806C24.7463 25.886 24.7473 26.3909 24.7483 26.8953C24.7506 28.0708 24.7529 29.2441 24.7427 30.4164L24.7427 30.417C24.7322 32.0705 23.8839 33.2383 22.4965 33.5975L22.495 33.5979C22.1124 33.6995 21.6972 33.7426 21.2873 33.7426H21.2868C15.4094 33.7539 9.53192 33.7539 3.65429 33.7501C2.57564 33.7483 1.73144 33.408 1.15673 32.819C0.581351 32.2294 0.25 31.3636 0.25 30.2618V10.8044C0.25 9.73862 0.551982 8.91098 1.08895 8.33826C1.62547 7.76604 2.42334 7.41973 3.47137 7.368L3.47137 7.36801L3.47276 7.36793C3.60075 7.3609 3.73351 7.36084 3.87075 7.36084H21.3241C21.9982 7.36084 22.6234 7.45195 23.1863 7.7821ZM3.54727 32.0131C9.53167 32.0131 15.5198 32.0131 21.508 32.0093C21.9888 32.0093 22.3918 31.9106 22.6682 31.6292C22.9435 31.3489 23.0408 30.9403 23.0408 30.4485C23.0408 23.898 23.0408 17.3511 23.0371 10.8005C23.0371 10.2572 22.9309 9.81359 22.6335 9.51142C22.3351 9.20821 21.8976 9.10161 21.3682 9.10161H3.49581C3.00326 9.10161 2.59448 9.19448 2.31807 9.48034C2.04383 9.76395 1.95556 10.1807 1.95556 10.6849V30.3813C1.95556 30.9074 2.0404 31.3389 2.32179 31.6297C2.60542 31.9229 3.02966 32.0131 3.54727 32.0131Z" fill="black" fill-opacity="0.5" stroke="white" stroke-width="0.5"/>
<path d="M11.5094 22.161L11.5094 22.1606C11.5103 22.1077 11.5112 22.0548 11.5122 22.002C11.5262 21.1985 11.54 20.4039 11.5059 19.6099L11.5059 19.6097C11.4498 18.2766 10.96 17.2393 9.76192 16.641C9.09524 16.3093 8.37108 16.2793 7.6027 16.3379C5.94619 16.4667 4.70237 17.7555 4.6648 19.358C4.64639 20.3228 4.62831 21.2808 4.67919 22.2336C4.69472 22.5167 4.83918 22.8609 5.02245 23.0384C5.02248 23.0384 5.0225 23.0384 5.02252 23.0385L4.84861 23.2181C5.0802 23.4421 5.15372 23.6326 5.15004 23.9276L11.5094 22.161ZM11.5094 22.161C11.503 22.5692 11.3752 22.8984 11.0621 23.1609L11.062 23.1609L11.0594 23.1631C10.9499 23.2576 10.8854 23.3913 10.8476 23.5046C10.8083 23.6228 10.7876 23.7504 10.7853 23.8626H10.7852L10.7852 23.8656C10.7766 24.8113 10.7768 25.7585 10.777 26.7038C10.7771 27.3774 10.7772 28.05 10.7742 28.7204C10.7707 28.9496 10.7433 29.1817 10.6874 29.3928C10.5857 29.755 10.2606 29.9891 9.89934 29.9891C9.57759 29.9891 9.25039 29.7537 9.18591 29.4028C9.06575 28.7341 8.97655 28.061 8.88648 27.3813C8.85626 27.1533 8.82595 26.9246 8.79434 26.6951C8.72824 26.197 8.66305 25.6988 8.59782 25.2004L8.59762 25.1989C8.53245 24.7009 8.46724 24.2026 8.4011 23.7043L8.37229 23.4872H8.15327C8.12722 23.4872 8.10207 23.4883 8.08303 23.4892L8.08109 23.4893C8.05991 23.4903 8.04545 23.4909 8.03197 23.4909H7.81277L7.78411 23.7082C7.6812 24.4887 7.57833 25.265 7.47181 26.0449L7.47181 26.045C7.42778 26.3679 7.38579 26.6901 7.3439 27.0116C7.24154 27.7971 7.13972 28.5785 7.00994 29.3566C6.94098 29.7462 6.61852 29.9867 6.2352 29.9929C5.90225 29.9951 5.58034 29.7527 5.47805 29.3197C5.42712 29.0987 5.40004 28.8675 5.40004 28.6407L5.40004 28.6396C5.39269 27.0684 5.39269 25.5009 5.40003 23.9297L11.5094 22.161ZM19.5964 28.7453V28.7442C19.5997 28.02 19.6 27.2941 19.6004 26.5676C19.6009 25.6586 19.6013 24.7488 19.6074 23.8408C19.6074 23.8406 19.6074 23.8403 19.6074 23.8401L19.8574 23.8417C19.8574 23.6774 19.9163 23.4533 20.0302 23.3637L19.5964 28.7453ZM19.5964 28.7453C19.5964 28.9528 19.5695 29.1686 19.514 29.3643L19.514 29.3642L19.5128 29.3686C19.4098 29.758 19.0743 29.9975 18.7095 29.9892C18.3842 29.9807 18.0663 29.7436 18.0008 29.3844C17.8834 28.727 17.797 28.0653 17.7097 27.3968C17.6804 27.1724 17.651 26.9472 17.6202 26.7212C17.5315 26.0657 17.446 25.4092 17.3604 24.7524C17.3149 24.4031 17.2694 24.0538 17.2234 23.7045L17.1973 23.5066L16.9985 23.4882C16.9717 23.4858 16.9457 23.4846 16.9271 23.4837C16.9062 23.4827 16.8937 23.4821 16.8831 23.481L16.6416 23.4564L16.61 23.6972C16.6022 23.7562 16.5945 23.8153 16.5867 23.8743C16.5211 24.3744 16.4556 24.8731 16.393 25.3748C16.3394 25.7831 16.2876 26.1903 16.2359 26.5968C16.1309 27.4213 16.0263 28.243 15.9083 29.0646L15.9083 29.0649C15.8609 29.3983 15.7377 29.6376 15.5833 29.7867C15.4322 29.9326 15.2383 30.0054 15.0119 29.9898C14.6114 29.9606 14.2814 29.632 14.2251 28.9749C14.2173 28.8762 14.2177 28.777 14.2183 28.6653C14.2184 28.6356 14.2186 28.6051 14.2186 28.5735C14.2186 28.1885 14.2184 27.8037 14.2181 27.4189C14.2174 26.2651 14.2168 25.1116 14.2223 23.9558M19.5964 28.7453L19.8745 23.1681C20.2013 22.9058 20.325 22.5639 20.3316 22.1352C20.3426 21.2953 20.3499 20.4589 20.3317 19.6233L20.3317 19.6233C20.2968 18.0026 19.4568 16.8276 18.0925 16.4725L18.092 16.4724C17.5717 16.3359 17.0013 16.3129 16.4424 16.3457L16.4421 16.3457C14.8062 16.4394 13.5485 17.7169 13.4943 19.2941L13.4943 19.2947C13.4577 20.2823 13.4541 21.2756 13.5014 22.2601C13.5173 22.5353 13.6558 22.8635 13.8252 23.0189L13.6561 23.2031L13.8248 23.0186C13.9741 23.1551 14.0801 23.2964 14.1446 23.4601C14.2084 23.6217 14.2242 23.7863 14.2223 23.9558M14.2223 23.9558C14.2223 23.9562 14.2223 23.9565 14.2223 23.9568L13.9723 23.9538L14.2223 23.955C14.2223 23.9553 14.2223 23.9555 14.2223 23.9558ZM18.8649 13.0853C18.8682 12.0205 17.9684 11.1019 16.9262 11.0953L18.8649 13.0853ZM18.8649 13.0853C18.8616 14.1556 17.9317 15.0834 16.8778 15.0768M18.8649 13.0853L16.8778 15.0768M16.8778 15.0768C15.8268 15.0702 14.954 14.1761 14.9538 13.0864M16.8778 15.0768L14.9538 13.0864M14.9538 13.0864C14.9572 11.9814 15.8516 11.0887 16.9261 11.0953L14.9538 13.0864ZM8.08711 11.0953C9.13028 11.0953 10.0391 12.008 10.0427 13.0677C10.0425 14.1445 9.12046 15.0801 8.07319 15.0768C7.01572 15.0735 6.13483 14.1837 6.13155 13.104C6.12827 11.9937 7.01364 11.0953 8.08711 11.0953Z" fill="black" fill-opacity="0.5" stroke="white" stroke-width="0.5"/>
<path d="M9.45085 4.56367H5.7786C5.27499 4.56367 4.95886 4.00721 5.2125 3.56279L6.12781 1.94943L7.04679 0.332338C7.30043 -0.112082 7.93269 -0.112082 8.18265 0.332338L9.10164 1.94943L10.0169 3.56279C10.2706 4.00721 9.95445 4.56367 9.45085 4.56367Z" fill="black" fill-opacity="0.5"/>
<path d="M19.2324 1.00088L18.3134 2.61424L17.3981 4.23133C17.1445 4.67575 16.5122 4.67575 16.2586 4.23133L15.3433 2.61424L14.4243 1.00088C14.1743 0.556459 14.4905 0 14.9941 0H18.6626C19.1699 0 19.4861 0.556459 19.2324 1.00088Z" fill="black" fill-opacity="0.5"/>
</g>
<defs>
<clipPath id="clip0_3546_2527">
<rect width="25" height="34" fill="white"/>
</clipPath>
</defs>
</svg>
