<svg width="25" height="34" viewBox="0 0 25 34" fill="none" xmlns="http://www.w3.org/2000/svg">
<g clip-path="url(#clip0_3768_1046)">
<path d="M24.9963 25.3806C24.9963 20.5293 25.0037 15.6743 24.9926 10.8231C24.989 9.45245 24.5515 8.29098 23.3127 7.56646C22.6952 7.20421 22.0188 7.11084 21.3241 7.11084H3.87075C3.73474 7.11084 3.59506 7.11084 3.45905 7.11831C1.26452 7.22661 0 8.57855 0 10.8044V30.2618C0 32.566 1.3895 33.9964 3.65387 34.0001C9.53169 34.0039 15.4095 34.0039 21.2873 33.9926C21.7137 33.9926 22.1512 33.9478 22.5592 33.8395C24.0737 33.4474 24.9816 32.1664 24.9926 30.4186C25.0073 28.7418 24.9963 27.0612 24.9963 25.3806ZM21.5079 31.7593C15.5198 31.7631 9.53169 31.7631 3.54727 31.7631C2.54742 31.7631 2.20556 31.4046 2.20556 30.3813V10.6849C2.20556 9.71387 2.55477 9.35161 3.49581 9.35161H21.3682C22.3754 9.35161 22.7871 9.76242 22.7871 10.8006C22.7908 17.3512 22.7908 23.898 22.7908 30.4485C22.7908 31.3821 22.4158 31.7593 21.5079 31.7593Z" fill="#808080"/>
<path d="M16.9277 10.8453C18.1114 10.8527 19.1186 11.8872 19.1149 13.086C19.1112 14.2923 18.0709 15.3343 16.8763 15.3268C15.6816 15.3193 14.7038 14.3073 14.7038 13.086C14.7075 11.8461 15.711 10.8378 16.9277 10.8453ZM8.08711 10.8453C9.27076 10.8453 10.289 11.8723 10.2927 13.0674C10.2927 14.2774 9.2634 15.3305 8.0724 15.3268C6.87405 15.3231 5.88523 14.3185 5.88155 13.1047C5.87787 11.8611 6.87037 10.8453 8.08711 10.8453ZM11.7594 22.1649C11.752 22.6317 11.6013 23.0351 11.2227 23.3525C11.1014 23.4571 11.0389 23.6924 11.0352 23.8679C11.0205 25.4887 11.0315 27.1058 11.0242 28.7229C11.0205 28.9694 10.9911 29.2233 10.9286 29.4586C10.7963 29.9329 10.3699 30.2391 9.89934 30.2391C9.46926 30.2391 9.02815 29.9292 8.93992 29.4474C8.77818 28.5474 8.67158 27.6361 8.5466 26.7286C8.41426 25.7315 8.28561 24.7343 8.15327 23.7372C8.11284 23.7372 8.0724 23.7409 8.03197 23.7409C7.92904 24.5214 7.82612 25.2982 7.71951 26.0788C7.5688 27.1842 7.44014 28.2971 7.25635 29.3989C7.16445 29.9217 6.72701 30.2354 6.23811 30.2429C5.77127 30.2466 5.35957 29.9068 5.23459 29.3765C5.17945 29.1374 5.15004 28.8872 5.15004 28.6407C5.14269 27.0685 5.14269 25.4999 5.15004 23.9276C5.15372 23.6326 5.0802 23.4421 4.84861 23.2181C4.61335 22.9902 4.44794 22.5832 4.42956 22.2471C4.37809 21.2835 4.39647 20.3163 4.41485 19.3527C4.45529 17.6161 5.80435 16.2268 7.5835 16.0887C8.36648 16.0289 9.14578 16.0551 9.87361 16.4173C11.1749 17.0671 11.6969 18.2025 11.7557 19.5992C11.7924 20.4544 11.7741 21.3097 11.7594 22.1649ZM20.5816 22.1388C20.5742 22.6205 20.4309 23.0425 20.0302 23.3637C19.9162 23.4533 19.8574 23.6774 19.8574 23.8417C19.8464 25.4775 19.8538 27.1095 19.8464 28.7453C19.8464 28.9731 19.817 29.2121 19.7545 29.4325C19.6222 29.9329 19.1847 30.2504 18.7032 30.2391C18.2694 30.2279 17.843 29.9142 17.7548 29.4287C17.5967 28.5436 17.4938 27.6473 17.3725 26.7547C17.2365 25.7501 17.1078 24.7418 16.9755 23.7372C16.9351 23.7334 16.8946 23.7334 16.8579 23.7297C16.7844 24.2899 16.7108 24.8464 16.641 25.4065C16.4793 26.639 16.3322 27.8714 16.1558 29.1001C16.0492 29.8507 15.586 30.2802 14.9942 30.2391C14.4281 30.1981 14.0384 29.7275 13.9759 28.9955C13.9649 28.8573 13.9686 28.7154 13.9686 28.5735C13.9686 27.0348 13.9649 25.4962 13.9723 23.9538C13.9759 23.6475 13.9135 23.4384 13.6561 23.2031C13.4282 22.994 13.2702 22.5981 13.2518 22.2732C13.204 21.2798 13.2077 20.2789 13.2444 19.2855C13.3033 17.575 14.667 16.197 16.4278 16.0961C17.0012 16.0625 17.6004 16.0849 18.1555 16.2306C19.6479 16.619 20.5448 17.9074 20.5816 19.6179C20.6 20.4582 20.5926 21.2985 20.5816 22.1388Z" fill="#808080"/>
<path d="M9.45085 4.56367H5.7786C5.27499 4.56367 4.95886 4.00721 5.2125 3.56279L6.12781 1.94943L7.04679 0.332338C7.30043 -0.112082 7.93269 -0.112082 8.18265 0.332338L9.10164 1.94943L10.0169 3.56279C10.2706 4.00721 9.95445 4.56367 9.45085 4.56367Z" fill="#808080"/>
<path d="M19.2324 1.00088L18.3134 2.61424L17.3981 4.23133C17.1445 4.67575 16.5122 4.67575 16.2586 4.23133L15.3433 2.61424L14.4243 1.00088C14.1743 0.556459 14.4905 0 14.9941 0H18.6626C19.1699 0 19.4861 0.556459 19.2324 1.00088Z" fill="#808080"/>
</g>
<defs>
<clipPath id="clip0_3768_1046">
<rect width="25" height="34" fill="white"/>
</clipPath>
</defs>
</svg>
