<svg width="171" height="63" viewBox="0 0 171 63" fill="none" xmlns="http://www.w3.org/2000/svg">
<rect width="171" height="63" rx="31.5" fill="#EDA54B" fill-opacity="0.2"/>
<path d="M34.0547 18.1914C38.9238 18.1738 42.5801 21.2324 42.5977 25.5039C42.5801 29.7402 38.9238 32.7637 34.0547 32.7812C29.1152 32.7637 25.4414 29.7402 25.4414 25.5039C25.4414 21.2324 29.1152 18.1738 34.0547 18.1914ZM29.8008 25.5039C29.7656 27.7891 31.5762 29.1426 34.0547 29.1602C36.4805 29.1426 38.2559 27.7891 38.2734 25.5039C38.2559 23.2012 36.4805 21.8477 34.0547 21.8477C31.5938 21.8477 29.7656 23.2012 29.8008 25.5039ZM30.2578 38.0547V34.6094H51.7383V43.293H34.7227V45.3672H52.6172V48.8828H30.3281V40.0234H47.2734V38.0547H30.2578ZM47.2383 33.2734V17.2422H51.7383V33.2734H47.2383ZM84.5925 35.6992V39.2148H72.0769V49.2344H67.6472V39.2148H55.3073V35.6992H84.5925ZM58.7527 32.6055V18.4727H63.1823V22.1641H76.612V18.4727H81.112V32.6055H58.7527ZM63.1823 29.0195H76.612V25.6797H63.1823V29.0195ZM110.978 17.2422V29.5117H115.513V33.2031H110.978V49.1641H106.478V17.2422H110.978ZM85.3842 40.1992C92.9604 36.4023 97.0385 31.3047 97.8823 24.168H87.2123V20.5117H102.435C102.4 30.0742 98.6733 38.3535 87.9155 43.6445L85.3842 40.1992ZM142.074 25.2578V28.8438H119.82V17.7344H124.285V25.2578H142.074ZM116.129 35.2422V31.5859H145.379V35.2422H116.129ZM119.469 43.1875C119.469 39.4082 123.688 37.2637 130.684 37.2461C137.627 37.2637 141.793 39.4082 141.828 43.1875C141.793 47.002 137.627 49.1289 130.684 49.1289C123.688 49.1289 119.469 47.002 119.469 43.1875ZM124.039 43.1875C124.022 44.8574 126.254 45.7012 130.684 45.7188C135.026 45.7012 137.311 44.8574 137.328 43.1875C137.311 41.4824 135.026 40.7617 130.684 40.7266C126.254 40.7617 124.022 41.4824 124.039 43.1875Z" fill="#EDA54B"/>
</svg>
