<svg width="201" height="63" viewBox="0 0 201 63" fill="none" xmlns="http://www.w3.org/2000/svg">
<rect width="201" height="63" rx="31.5" fill="#E56E73" fill-opacity="0.2"/>
<path d="M36.7266 24.4844C36.709 30.2148 39.1523 35.998 44.2852 38.4766L41.5781 42.0625C38.1504 40.3574 35.8301 37.1934 34.5117 33.3438C33.1055 37.4746 30.6445 40.8672 27.0234 42.6602L24.2461 39.0391C29.6777 36.543 32.2266 30.4258 32.2266 24.4844V19.7031H36.7266V24.4844ZM45.6914 49.2344V17.2422H50.1914V29.582H54.9023V33.3789H50.1914V49.2344H45.6914ZM84.5222 32.3945V35.9805H55.3425V32.3945H61.9167V28.5625C59.5788 27.5254 58.2605 25.9434 58.2605 23.8867C58.2605 20.0195 62.8132 17.7168 69.9323 17.6992C76.9988 17.7168 81.5515 20.0195 81.5691 23.8867C81.5515 25.9785 80.198 27.5781 77.8073 28.5977V32.3945H84.5222ZM58.6823 43.3984C58.6823 39.707 62.8835 37.6504 69.8972 37.668C76.8054 37.6504 81.0066 39.707 81.0417 43.3984C81.0066 47.1777 76.8054 49.1992 69.8972 49.1992C62.8835 49.1992 58.6823 47.1777 58.6823 43.3984ZM62.9363 23.8867C62.9011 25.6445 65.4148 26.541 69.9323 26.5234C74.3972 26.541 76.9284 25.6445 76.9284 23.8867C76.9284 22.0938 74.3972 21.1445 69.9323 21.1445C65.4148 21.1445 62.9011 22.0938 62.9363 23.8867ZM63.2527 43.3984C63.2351 45.0332 65.4675 45.8594 69.8972 45.8594C74.239 45.8594 76.5241 45.0332 76.5417 43.3984C76.5241 41.8164 74.239 41.0605 69.8972 41.043C65.4675 41.0605 63.2351 41.8164 63.2527 43.3984ZM66.4519 32.3945H73.3425V29.7051C72.2878 29.8457 71.1452 29.8984 69.9323 29.8984C68.6843 29.8984 67.5241 29.8281 66.4519 29.7051V32.3945ZM93.892 17.7344V19.9492H106.724V17.7344H111.189V28.457H89.4623V17.7344H93.892ZM85.7358 33.7305V30.1094H114.915V33.7305H102.54V35.7344H111.365V43.8203H93.5405V45.6484H112.208V49.0234H89.1459V40.7266H106.935V39.0039H89.1108V35.7344H98.0405V33.7305H85.7358ZM93.892 25.1172H106.724V23.1836H93.892V25.1172ZM141.371 17.2422V29.5117H145.906V33.2031H141.371V49.1641H136.871V17.2422H141.371ZM115.777 40.1992C123.354 36.4023 127.432 31.3047 128.276 24.168H117.606V20.5117H132.828C132.793 30.0742 129.067 38.3535 118.309 43.6445L115.777 40.1992ZM172.468 25.2578V28.8438H150.214V17.7344H154.679V25.2578H172.468ZM146.522 35.2422V31.5859H175.772V35.2422H146.522ZM149.862 43.1875C149.862 39.4082 154.081 37.2637 161.077 37.2461C168.02 37.2637 172.186 39.4082 172.222 43.1875C172.186 47.002 168.02 49.1289 161.077 49.1289C154.081 49.1289 149.862 47.002 149.862 43.1875ZM154.433 43.1875C154.415 44.8574 156.647 45.7012 161.077 45.7188C165.419 45.7012 167.704 44.8574 167.722 43.1875C167.704 41.4824 165.419 40.7617 161.077 40.7266C156.647 40.7617 154.415 41.4824 154.433 43.1875Z" fill="#E56E73"/>
</svg>
