<svg width="171" height="63" viewBox="0 0 171 63" fill="none" xmlns="http://www.w3.org/2000/svg">
<rect width="171" height="63" rx="31.5" fill="#CBD0D9" fill-opacity="0.4"/>
<path d="M50.543 17.2773V26.418H54.6211V30.1094H50.543V39.0039H46.043V17.2773H50.543ZM24.5977 34.8906C26.9355 34.8906 29.5898 34.8906 32.3672 34.8203V33.0273C28.8867 32.5352 26.7246 30.8301 26.7422 28.3867C26.7246 25.416 29.8359 23.5879 34.582 23.6055C39.293 23.5879 42.4043 25.416 42.4219 28.3867C42.4043 30.8301 40.2598 32.5176 36.832 33.0098V34.6621C39.4688 34.5215 42.1055 34.3281 44.5664 34.0117L44.8828 37.1055C38.1152 38.3008 30.6973 38.3711 25.0547 38.3711L24.5977 34.8906ZM25.4414 22.8672V19.5977H32.3672V16.9961H36.832V19.5977H43.7578V22.8672H25.4414ZM28.6758 43.75V40.3047H50.543V49.2344H46.043V43.75H28.6758ZM31.0312 28.3867C31.0137 29.5469 32.2969 30.2324 34.582 30.2148C36.832 30.2324 38.1152 29.5469 38.1328 28.3867C38.1152 27.1387 36.832 26.5938 34.582 26.5938C32.2969 26.5938 31.0137 27.1387 31.0312 28.3867ZM82.1316 17.2773V40.2695H77.6316V17.2773H82.1316ZM55.8347 27.3672C55.8347 22.6738 59.6667 19.2988 64.5886 19.3164C69.4929 19.2988 73.3249 22.6738 73.3425 27.3672C73.3249 32.1309 69.4929 35.4883 64.5886 35.4883C59.6667 35.4883 55.8347 32.1309 55.8347 27.3672ZM60.2292 27.3672C60.1941 30.0391 62.0749 31.5859 64.5886 31.5859C67.0144 31.5859 68.8952 30.0391 68.9128 27.3672C68.8952 24.7656 67.0144 23.2012 64.5886 23.2188C62.0749 23.2012 60.1941 24.7656 60.2292 27.3672ZM60.6863 48.6719V37.9492H65.2214V45.0859H82.9753V48.6719H60.6863ZM93.892 17.7344V19.9492H106.724V17.7344H111.189V28.457H89.4623V17.7344H93.892ZM85.7358 33.7305V30.1094H114.915V33.7305H102.54V35.7344H111.365V43.8203H93.5405V45.6484H112.208V49.0234H89.1459V40.7266H106.935V39.0039H89.1108V35.7344H98.0405V33.7305H85.7358ZM93.892 25.1172H106.724V23.1836H93.892V25.1172ZM141.371 17.2422V29.5117H145.906V33.2031H141.371V49.1641H136.871V17.2422H141.371ZM115.777 40.1992C123.354 36.4023 127.432 31.3047 128.276 24.168H117.606V20.5117H132.828C132.793 30.0742 129.067 38.3535 118.309 43.6445L115.777 40.1992Z" fill="#96A1B2"/>
</svg>
