<svg width="171" height="63" viewBox="0 0 171 63" fill="none" xmlns="http://www.w3.org/2000/svg">
<rect width="171" height="63" rx="31.5" fill="#60D084" fill-opacity="0.3"/>
<path d="M36.7266 24.4844C36.709 30.2148 39.1523 35.998 44.2852 38.4766L41.5781 42.0625C38.1504 40.3574 35.8301 37.1934 34.5117 33.3438C33.1055 37.4746 30.6445 40.8672 27.0234 42.6602L24.2461 39.0391C29.6777 36.543 32.2266 30.4258 32.2266 24.4844V19.7031H36.7266V24.4844ZM45.6914 49.2344V17.2422H50.1914V29.582H54.9023V33.3789H50.1914V49.2344H45.6914ZM84.5222 32.3945V35.9805H55.3425V32.3945H61.9167V28.5625C59.5788 27.5254 58.2605 25.9434 58.2605 23.8867C58.2605 20.0195 62.8132 17.7168 69.9323 17.6992C76.9988 17.7168 81.5515 20.0195 81.5691 23.8867C81.5515 25.9785 80.198 27.5781 77.8073 28.5977V32.3945H84.5222ZM58.6823 43.3984C58.6823 39.707 62.8835 37.6504 69.8972 37.668C76.8054 37.6504 81.0066 39.707 81.0417 43.3984C81.0066 47.1777 76.8054 49.1992 69.8972 49.1992C62.8835 49.1992 58.6823 47.1777 58.6823 43.3984ZM62.9363 23.8867C62.9011 25.6445 65.4148 26.541 69.9323 26.5234C74.3972 26.541 76.9284 25.6445 76.9284 23.8867C76.9284 22.0938 74.3972 21.1445 69.9323 21.1445C65.4148 21.1445 62.9011 22.0938 62.9363 23.8867ZM63.2527 43.3984C63.2351 45.0332 65.4675 45.8594 69.8972 45.8594C74.239 45.8594 76.5241 45.0332 76.5417 43.3984C76.5241 41.8164 74.239 41.0605 69.8972 41.043C65.4675 41.0605 63.2351 41.8164 63.2527 43.3984ZM66.4519 32.3945H73.3425V29.7051C72.2878 29.8457 71.1452 29.8984 69.9323 29.8984C68.6843 29.8984 67.5241 29.8281 66.4519 29.7051V32.3945ZM110.978 17.2422V29.5117H115.513V33.2031H110.978V49.1641H106.478V17.2422H110.978ZM85.3842 40.1992C92.9604 36.4023 97.0385 31.3047 97.8823 24.168H87.2123V20.5117H102.435C102.4 30.0742 98.6733 38.3535 87.9155 43.6445L85.3842 40.1992ZM142.074 25.2578V28.8438H119.82V17.7344H124.285V25.2578H142.074ZM116.129 35.2422V31.5859H145.379V35.2422H116.129ZM119.469 43.1875C119.469 39.4082 123.688 37.2637 130.684 37.2461C137.627 37.2637 141.793 39.4082 141.828 43.1875C141.793 47.002 137.627 49.1289 130.684 49.1289C123.688 49.1289 119.469 47.002 119.469 43.1875ZM124.039 43.1875C124.022 44.8574 126.254 45.7012 130.684 45.7188C135.026 45.7012 137.311 44.8574 137.328 43.1875C137.311 41.4824 135.026 40.7617 130.684 40.7266C126.254 40.7617 124.022 41.4824 124.039 43.1875Z" fill="#4AA570"/>
</svg>
