<svg width="122" height="77" viewBox="0 0 122 77" fill="none" xmlns="http://www.w3.org/2000/svg">
<g filter="url(#filter0_d_1391_3147)">
<path d="M64.3927 61.8033C63.7851 63.6272 61.2052 63.6272 60.5977 61.8033L56 48L66.2162 48C67.5811 48 68.545 49.3371 68.1137 50.632L64.3927 61.8033Z" fill="#60B157"/>
<g filter="url(#filter1_d_1391_3147)">
<rect x="17" y="17" width="88" height="34" rx="17" fill="white"/>
<rect x="15.425" y="15.425" width="91.15" height="37.15" rx="18.575" stroke="#60B157" stroke-width="3.15"/>
</g>
<path d="M61.8496 25.5969V29.675H64.2051V30.8176H61.8496V34.9836H60.4785V25.5969H61.8496ZM49.6504 33.8762C53.4209 32.7864 55.8291 30.6155 56.1104 27.8997H50.3359V26.7571H57.5957C57.5869 30.7385 54.7832 33.6565 50.2305 35.0012L49.6504 33.8762ZM51.7949 38.1653C51.7861 36.2932 53.7988 35.1506 56.9102 35.1594C60.0479 35.1506 62.0254 36.2932 62.0254 38.1653C62.0254 40.0637 60.0479 41.1887 56.9102 41.1887C53.7988 41.1887 51.7861 40.0637 51.7949 38.1653ZM53.166 38.1653C53.1484 39.343 54.6162 40.0901 56.9102 40.0813C59.2041 40.0901 60.6895 39.343 60.6895 38.1653C60.6895 36.9875 59.2041 36.2581 56.9102 36.2668C54.6162 36.2581 53.1484 36.9875 53.166 38.1653ZM77.4062 25.6145V29.2004H79.7793V30.3606H77.4062V34.4387H76.0352V25.6145H77.4062ZM65.9453 33.2434V26.4055H67.334V32.0833C69.5664 32.0745 71.8604 31.8987 74.3828 31.3801L74.5586 32.5403C71.9043 33.0764 69.54 33.2346 67.1934 33.2434H65.9453ZM67.5098 41.0129V35.3H77.4062V41.0129H67.5098ZM68.8633 39.8879H76.0703V36.3899H68.8633V39.8879ZM93.7012 35.6692V41.2239H92.3125V36.7766H83.1895V35.6692H93.7012ZM80.9922 30.22C80.9834 28.0403 82.7148 26.4846 85.0527 26.4934C86.4062 26.4846 87.5576 27.0208 88.2783 27.8997H92.3125V25.5969H93.7012V34.8079H92.3125V32.5579H88.2871C87.5664 33.4456 86.415 33.9729 85.0527 33.9641C82.7148 33.9817 80.9834 32.4436 80.9922 30.22ZM82.3105 30.22C82.3105 31.7405 83.4531 32.804 85.0527 32.804C86.5908 32.804 87.7598 31.7405 87.7598 30.22C87.7598 28.7522 86.5908 27.6711 85.0527 27.6711C83.4531 27.6711 82.3105 28.7522 82.3105 30.22ZM88.9111 31.4153H92.3125V29.0422H88.9023C89.0254 29.4114 89.0957 29.7981 89.0957 30.22C89.0957 30.6418 89.0254 31.0461 88.9111 31.4153Z" fill="black"/>
<circle cx="33" cy="33.8" r="10" fill="#60B157"/>
<path d="M29.5942 38.8L29.5796 37.8333L33.1978 34.0247C34.4502 32.6917 35.0508 31.9739 35.0581 30.9924C35.0508 29.9011 34.1426 29.198 32.9487 29.1907C31.6816 29.198 30.8906 29.9963 30.8833 31.1829H29.6382C29.6235 29.3079 31.0737 28.0481 32.9927 28.0481C34.9189 28.0481 36.2812 29.3445 36.2886 30.9924C36.2812 32.179 35.7319 33.1018 33.8569 35.0354L31.4253 37.5403V37.6282H36.479V38.8H29.5942Z" fill="white"/>
</g>
<defs>
<filter id="filter0_d_1391_3147" x="0.516643" y="0.516765" width="120.967" height="75.9877" filterUnits="userSpaceOnUse" color-interpolation-filters="sRGB">
<feFlood flood-opacity="0" result="BackgroundImageFix"/>
<feColorMatrix in="SourceAlpha" type="matrix" values="0 0 0 0 0 0 0 0 0 0 0 0 0 0 0 0 0 0 127 0" result="hardAlpha"/>
<feOffset/>
<feGaussianBlur stdDeviation="6.66667"/>
<feComposite in2="hardAlpha" operator="out"/>
<feColorMatrix type="matrix" values="0 0 0 0 0.266528 0 0 0 0 0.316667 0 0 0 0 0.271542 0 0 0 0.3 0"/>
<feBlend mode="normal" in2="BackgroundImageFix" result="effect1_dropShadow_1391_3147"/>
<feBlend mode="normal" in="SourceGraphic" in2="effect1_dropShadow_1391_3147" result="shape"/>
</filter>
<filter id="filter1_d_1391_3147" x="0.516643" y="0.516765" width="120.967" height="66.9665" filterUnits="userSpaceOnUse" color-interpolation-filters="sRGB">
<feFlood flood-opacity="0" result="BackgroundImageFix"/>
<feColorMatrix in="SourceAlpha" type="matrix" values="0 0 0 0 0 0 0 0 0 0 0 0 0 0 0 0 0 0 127 0" result="hardAlpha"/>
<feOffset/>
<feGaussianBlur stdDeviation="6.66667"/>
<feComposite in2="hardAlpha" operator="out"/>
<feColorMatrix type="matrix" values="0 0 0 0 0.266528 0 0 0 0 0.316667 0 0 0 0 0.271542 0 0 0 0.1 0"/>
<feBlend mode="normal" in2="BackgroundImageFix" result="effect1_dropShadow_1391_3147"/>
<feBlend mode="normal" in="SourceGraphic" in2="effect1_dropShadow_1391_3147" result="shape"/>
</filter>
</defs>
</svg>
