<svg width="44" height="57" viewBox="0 0 44 57" fill="none" xmlns="http://www.w3.org/2000/svg">
<g clip-path="url(#clip0_1824_2157)">
<path d="M41.84 41C40.74 39.58 39.64 38.14 38.62 36.62C37.56 35.08 36.28 34.02 34.84 33.48C33.4 32.94 31.78 32.88 30 33.36C29.82 33.4 29.66 33.46 29.48 33.5C28.06 33.88 26.66 34.26 25.32 34.76C24.7 35 24.14 35.04 23.62 34.88C23.12 34.74 22.7 34.4 22.32 33.96C20.12 31.38 18.14 28.6 17 25.32C16.56 24.02 16.9 22.58 17.92 21.64C18.08 21.48 18.26 21.32 18.44 21.16C19.72 20 20.98 18.84 22.08 17.54C23.46 15.9 24.02 13.88 23.44 11.78C22.58 8.63997 21.18 5.67997 19.36 2.97997C18.58 1.85997 17.58 1.11997 16.3 0.659973C14.7 0.0999733 12.94 0.139973 11.28 0.599973C11.2 0.619973 11.14 0.639973 11.06 0.659973C9.89997 0.979973 8.65996 1.33997 7.41996 1.75997C3.97996 2.91997 1.89996 5.35997 0.959956 8.83997C-0.120045 12.88 0.0799556 16.98 1.11996 20.98C3.71996 30.9 8.67997 39.58 15.62 47.12C19.08 50.88 23.16 53.76 28.06 55.34C29.28 55.72 30.44 55.92 31.6 55.92C33.76 55.92 35.78 55.22 37.68 53.74C38.9 52.8 40.06 51.7 41.16 50.58C43.72 47.98 44.24 44.14 41.84 41ZM39.32 47.2C37.66 49.46 35.7 51.6 32.62 52.22C32.32 52.28 32.02 52.3 31.72 52.32C31.6 52.34 31.48 52.34 31.36 52.36H31.32C28.8 52.24 26.6 51.2 24.54 49.98C20.38 47.52 17.12 44.06 14.34 40.22C10.24 34.56 6.79996 28.52 4.93996 21.7C4.29996 19.38 3.89996 17.04 3.89996 14.68C3.89996 13.12 4.07996 11.56 4.45996 9.97997C5.07996 7.39997 6.71996 5.67997 9.19997 4.83997C10.32 4.45997 11.46 4.11997 12.62 3.85997C12.98 3.77997 13.34 3.73997 13.68 3.73997C14.28 3.73997 14.82 3.85997 15.34 4.11997C16.14 4.53997 16.76 5.21997 17.2 6.15997C17.48 6.73997 17.76 7.33997 18.04 7.91997C18.56 8.95997 19.06 10.02 19.52 11.1C19.86 11.88 20.04 12.58 20.04 13.24C20.04 13.48 20.02 13.7 19.98 13.92C19.8 14.78 19.26 15.54 18.42 16.34C18.28 16.48 18.12 16.62 17.98 16.76C17.02 17.68 16.06 18.6 15.08 19.48C14.1 20.34 13.48 21.28 13.2 22.32C12.92 23.34 12.96 24.46 13.36 25.68C14.72 29.86 16.86 33.6 19.96 36.72C20.88 37.64 21.86 38.24 22.9 38.5C23.08 38.54 23.24 38.58 23.42 38.58C24.34 38.72 25.32 38.6 26.38 38.18L31.1 36.8L31.48 36.7C31.8 36.62 32.12 36.6 32.42 36.6C33.54 36.6 34.52 37.08 35.26 38.02C36.6 39.76 37.94 41.54 39.18 43.34C39.98 44.5 40.2 46 39.32 47.2Z" fill="#808080" stroke="white" stroke-width="0.48" stroke-miterlimit="10"/>
</g>
<defs>
<clipPath id="clip0_1824_2157">
<rect width="43.62" height="56.16" fill="white"/>
</clipPath>
</defs>
</svg>
