<svg width="16" height="24" viewBox="0 0 16 24" fill="none" xmlns="http://www.w3.org/2000/svg">
<path d="M7.91258 23.6666C7.09591 23.6666 6.30355 23.5791 5.5355 23.4041C4.76744 23.2291 4.0723 23.0055 3.45008 22.7333C2.55564 22.3444 1.82647 21.8728 1.26258 21.3187C0.698692 20.7645 0.416748 20.1471 0.416748 19.4666V12.7291C0.416748 12.1263 0.64522 11.5721 1.10216 11.0666C1.55911 10.561 2.1473 10.1138 2.86675 9.72492C3.60564 9.33603 4.41744 9.03464 5.30216 8.82075C6.18689 8.60686 7.08619 8.49992 8.00008 8.49992C8.91397 8.49992 9.81328 8.60686 10.698 8.82075C11.5827 9.03464 12.3945 9.33603 13.1334 9.72492C13.8723 10.1138 14.4654 10.561 14.9126 11.0666C15.3598 11.5721 15.5834 12.1263 15.5834 12.7291V19.4666C15.5834 19.7971 15.5105 20.118 15.3647 20.4291C15.2188 20.7402 15.0098 21.0319 14.7376 21.3041C14.4654 21.5763 14.1494 21.8339 13.7897 22.077C13.4299 22.3201 13.0265 22.5388 12.5792 22.7333C12.5987 22.636 12.6279 22.3638 12.6667 21.9166C12.6667 20.7888 12.2681 19.8263 11.4709 19.0291C10.6737 18.2319 9.71119 17.8333 8.58342 17.8333C7.7473 17.8333 7.00841 18.0569 6.36675 18.5041C5.72508 18.9513 5.23897 19.5249 4.90841 20.2249C5.53064 20.3805 6.09939 20.4874 6.61466 20.5458C7.12994 20.6041 7.58203 20.6333 7.97091 20.6333C8.30147 20.6333 8.56883 20.6235 8.773 20.6041C8.97717 20.5846 9.10841 20.5749 9.16675 20.5749V23.6083C8.95286 23.6277 8.74383 23.6423 8.53967 23.652C8.3355 23.6617 8.12647 23.6666 7.91258 23.6666ZM11.5001 17.2499C12.1417 17.2499 12.6911 17.0214 13.148 16.5645C13.6049 16.1076 13.8334 15.5583 13.8334 14.9166C13.8334 14.2749 13.6049 13.7256 13.148 13.2687C12.6911 12.8117 12.1417 12.5833 11.5001 12.5833C10.8584 12.5833 10.3091 12.8117 9.85217 13.2687C9.39522 13.7256 9.16675 14.2749 9.16675 14.9166C9.16675 15.5583 9.39522 16.1076 9.85217 16.5645C10.3091 17.0214 10.8584 17.2499 11.5001 17.2499ZM8.00008 7.33325C8.9723 7.33325 9.79869 6.99784 10.4792 6.327C11.1598 5.65617 11.5001 4.82492 11.5001 3.83325C11.5001 2.86103 11.1598 2.03464 10.4792 1.35409C9.79869 0.67353 8.9723 0.333252 8.00008 0.333252C7.00841 0.333252 6.17716 0.67353 5.50633 1.35409C4.8355 2.03464 4.50008 2.86103 4.50008 3.83325C4.50008 4.82492 4.8355 5.65617 5.50633 6.327C6.17716 6.99784 7.00841 7.33325 8.00008 7.33325Z" fill="black" fill-opacity="0.3"/>
</svg>
