<svg width="59" height="64" viewBox="0 0 59 64" fill="none" xmlns="http://www.w3.org/2000/svg">
<g clip-path="url(#clip0_3781_1466)">
<path opacity="0.5" d="M0 31.77L0 55.54C0 59.9583 3.58172 63.54 8 63.54C12.4183 63.54 16 59.9583 16 55.54L16 31.77C16 27.3517 12.4183 23.77 8 23.77C3.58172 23.77 0 27.3517 0 31.77Z" fill="#316BFF"/>
<path opacity="0.5" d="M2.55187 13.4086L26.3602 37.2169C29.1368 39.9935 33.6386 39.9935 36.4152 37.2169L36.8819 36.7502C39.6585 33.9735 39.6585 29.4717 36.8819 26.6951L13.0736 2.88683C10.297 0.110207 5.79519 0.110206 3.01856 2.88683L2.55187 3.35352C-0.224754 6.13015 -0.224752 10.632 2.55187 13.4086Z" fill="#316BFF"/>
<path d="M8 63.67C12.4183 63.67 16 60.0883 16 55.67C16 51.2517 12.4183 47.67 8 47.67C3.58172 47.67 0 51.2517 0 55.67C0 60.0883 3.58172 63.67 8 63.67Z" fill="#316BFF"/>
<path d="M31.87 23.77H8C3.58172 23.77 0 27.3517 0 31.77C0 36.1882 3.58172 39.77 8 39.77H31.87C36.2883 39.77 39.87 36.1882 39.87 31.77C39.87 27.3517 36.2883 23.77 31.87 23.77Z" fill="#316BFF"/>
<path d="M50.33 0H8C3.58172 0 0 3.58172 0 8C0 12.4183 3.58172 16 8 16H50.33C54.7483 16 58.33 12.4183 58.33 8C58.33 3.58172 54.7483 0 50.33 0Z" fill="#316BFF"/>
</g>
<defs>
<clipPath id="clip0_3781_1466">
<rect width="58.33" height="63.67" fill="white"/>
</clipPath>
</defs>
</svg>
