<svg width="65" height="56" viewBox="0 0 65 56" fill="none" xmlns="http://www.w3.org/2000/svg">
<g clip-path="url(#clip0_1823_2152)">
<path d="M63.3037 1.20844C62.372 0.730024 61.2641 0.805564 60.408 1.40988L42.354 14.2768L23.8216 0.553765C22.8396 -0.17645 21.5303 -0.17645 20.5231 0.553765L1.53744 14.5789C0.857581 15.0825 0.429523 15.8883 0.404343 16.7696L0.00146484 52.2732C0.00146484 53.3307 0.580602 54.2876 1.51226 54.766C2.44391 55.2696 3.55183 55.1689 4.38276 54.5646L22.1598 41.7984L40.7173 55.471C41.1957 55.8236 41.7749 55.9998 42.354 55.9998C42.9332 55.9998 43.4619 55.8487 43.9403 55.4962L63.631 41.5466C64.3612 41.0178 64.7893 40.1869 64.7893 39.2804V3.65089C64.7893 2.61851 64.2101 1.68686 63.3037 1.20844ZM20.6741 39.1797C20.6741 39.1797 20.5986 39.23 20.5482 39.2552L4.03024 51.0897C3.60219 51.3919 3.02305 51.0897 3.02305 50.561L3.30003 17.6005C3.30003 17.1976 3.50147 16.8451 3.80363 16.5933L20.6741 4.20484V39.1797ZM40.818 51.7948L23.8216 39.2552C23.8216 39.2552 23.7461 39.2048 23.6957 39.1797V4.20484L40.6921 16.82C40.6921 16.82 40.7677 16.8703 40.818 16.8955V51.7948ZM43.8396 51.8703V16.9207C43.8396 16.9207 43.9152 16.8703 43.9655 16.8451L60.7857 4.85952C61.2137 4.55736 61.7677 4.85952 61.7929 5.36312L61.9188 38.4243C61.9188 38.8271 61.7173 39.23 61.39 39.4566L43.8648 51.8703H43.8396Z" fill="#808080"/>
</g>
<defs>
<clipPath id="clip0_1823_2152">
<rect width="64.7878" height="56" fill="white"/>
</clipPath>
</defs>
</svg>
