<svg width="14" height="23" viewBox="0 0 14 23" fill="none" xmlns="http://www.w3.org/2000/svg">
<path d="M1.1377 2.52246C0.891602 2.52246 0.680664 2.43457 0.504883 2.25879C0.329102 2.08301 0.241211 1.86914 0.241211 1.61719C0.241211 1.37695 0.329102 1.16895 0.504883 0.993164C0.680664 0.817383 0.891602 0.729492 1.1377 0.729492H12.7041C12.9502 0.729492 13.1611 0.817383 13.3369 0.993164C13.5127 1.16895 13.6006 1.37695 13.6006 1.61719C13.6006 1.86914 13.5127 2.08301 13.3369 2.25879C13.1611 2.43457 12.9502 2.52246 12.7041 2.52246H1.1377ZM6.9209 13.2012C6.01855 13.2012 5.18359 13.1426 4.41602 13.0254C3.6543 12.9023 2.98926 12.7324 2.4209 12.5156C1.85254 12.293 1.41016 12.0352 1.09375 11.7422C0.777344 11.4434 0.619141 11.1182 0.619141 10.7666C0.619141 10.4209 0.777344 10.1016 1.09375 9.80859C1.41016 9.50977 1.85254 9.25195 2.4209 9.03516C2.98926 8.81836 3.6543 8.65137 4.41602 8.53418C5.18359 8.41113 6.01855 8.34961 6.9209 8.34961C7.82324 8.34961 8.6582 8.41113 9.42578 8.53418C10.1934 8.65137 10.8613 8.81836 11.4297 9.03516C11.998 9.25195 12.4375 9.50977 12.748 9.80859C13.0645 10.1016 13.2227 10.4209 13.2227 10.7666C13.2227 11.1182 13.0645 11.4434 12.748 11.7422C12.4375 12.0352 11.998 12.293 11.4297 12.5156C10.8672 12.7324 10.2021 12.9023 9.43457 13.0254C8.66699 13.1426 7.8291 13.2012 6.9209 13.2012ZM6.6748 17.3408C5.66699 17.3408 4.75586 17.1592 3.94141 16.7959C3.13281 16.4326 2.45898 15.9111 1.91992 15.2314C1.38086 14.5518 1.01465 13.7285 0.821289 12.7617C1.43652 13.2129 2.27148 13.5615 3.32617 13.8076C4.38672 14.0537 5.58496 14.1768 6.9209 14.1768C8.2627 14.1768 9.46094 14.0537 10.5156 13.8076C11.5703 13.5615 12.4082 13.2129 13.0293 12.7617C12.8359 13.7227 12.4668 14.5459 11.9219 15.2314C11.3828 15.9111 10.709 16.4326 9.90039 16.7959C9.0918 17.1592 8.18066 17.3408 7.16699 17.3408H6.6748ZM6.9209 22.6055C6.39941 22.6055 5.85156 22.5586 5.27734 22.4648C4.70312 22.377 4.16406 22.2363 3.66016 22.043C3.16211 21.8496 2.76367 21.6035 2.46484 21.3047C2.3418 21.1699 2.26855 21.0176 2.24512 20.8477C2.22168 20.6777 2.23633 20.499 2.28906 20.3115L3.12402 17.5605C3.65137 17.8242 4.21094 18.0234 4.80273 18.1582C5.39453 18.293 6.00684 18.3604 6.63965 18.3604H7.17578C7.81445 18.3604 8.43262 18.29 9.03027 18.1494C9.62793 18.0146 10.1904 17.8154 10.7178 17.5518L11.5527 20.3115C11.6055 20.499 11.6201 20.6777 11.5967 20.8477C11.5732 21.0176 11.5 21.1699 11.377 21.3047C11.0781 21.6035 10.6768 21.8496 10.1729 22.043C9.6748 22.2363 9.13867 22.377 8.56445 22.4648C7.99023 22.5586 7.44238 22.6055 6.9209 22.6055ZM12.2471 8.2793C11.5967 7.98047 10.8174 7.74902 9.90918 7.58496C9.00098 7.41504 8.00488 7.33008 6.9209 7.33008C5.84277 7.33008 4.84668 7.41504 3.93262 7.58496C3.02441 7.74902 2.24805 7.98047 1.60352 8.2793L1.26953 3.54199H12.5635L12.2471 8.2793Z" fill="#434343"/>
</svg>
